[Header]
FileType HTR
DataType HTRS
FileVersion 1
NumSegments 64
NumFrames 4
DataFrameRate 24
EulerRotationOrder ZYX
CalibrationUnits mm
RotationUnits Degrees
GlobalAxisofGravity Y
BoneLengthAxis Y
ScaleFactor 1.0
[SegmentNames&Hierarchy]
Hips	GLOBAL
Spine	Hips
Spine1	Spine
Spine2	Spine1
Neck	Spine2
Head	Neck
LeftEye	Head
RightEye	Head
LeftShoulder	Spine2
LeftArm	LeftShoulder
LeftForeArm	LeftArm
LeftHand	LeftForeArm
LeftHandThumb1	LeftHand
LeftHandThumb2	LeftHandThumb1
LeftHandThumb3	LeftHandThumb2
LeftHandThumb4	LeftHandThumb3
LeftHandIndex1	LeftHand
LeftHandIndex2	LeftHandIndex1
LeftHandIndex3	LeftHandIndex2
LeftHandIndex4	LeftHandIndex3
LeftHandMiddle1	LeftHand
LeftHandMiddle2	LeftHandMiddle1
LeftHandMiddle3	LeftHandMiddle2
LeftHandMiddle4	LeftHandMiddle3
LeftHandRing1	LeftHand
LeftHandRing2	LeftHandRing1
LeftHandRing3	LeftHandRing2
LeftHandRing4	LeftHandRing3
LeftHandPinky1	LeftHand
LeftHandPinky2	LeftHandPinky1
LeftHandPinky3	LeftHandPinky2
LeftHandPinky4	LeftHandPinky3
RightShoulder	Spine2
RightArm	RightShoulder
RightForeArm	RightArm
RightHand	RightForeArm
RightHandPinky1	RightHand
RightHandPinky2	RightHandPinky1
RightHandPinky3	RightHandPinky2
RightHandPinky4	RightHandPinky3
RightHandRing1	RightHand
RightHandRing2	RightHandRing1
RightHandRing3	RightHandRing2
RightHandRing4	RightHandRing3
RightHandMiddle1	RightHand
RightHandMiddle2	RightHandMiddle1
RightHandMiddle3	RightHandMiddle2
RightHandMiddle4	RightHandMiddle3
RightHandIndex1	RightHand
RightHandIndex2	RightHandIndex1
RightHandIndex3	RightHandIndex2
RightHandIndex4	RightHandIndex3
RightHandThumb1	RightHand
RightHandThumb2	RightHandThumb1
RightHandThumb3	RightHandThumb2
RightHandThumb4	RightHandThumb3
LeftUpLeg	Hips
LeftLeg	LeftUpLeg
LeftFoot	LeftLeg
LeftToeBase	LeftFoot
RightUpLeg	Hips
RightLeg	RightUpLeg
RightFoot	RightLeg
RightToeBase	RightFoot
[BasePosition]
Hips	0	0	0	0	0	0	1
Spine	0	0	0	0	0	0	1
Spine1	0	0	0	0	0	0	1
Spine2	0	0	0	0	0	0	1
Neck	0	0	0	0	0	0	1
Head	0	0	0	0	0	0	1
LeftEye	0	0	0	0	0	0	1
RightEye	0	0	0	0	0	0	1
LeftShoulder	0	0	0	0	0	0	1
LeftArm	0	0	0	0	0	0	1
LeftForeArm	0	0	0	0	0	0	1
LeftHand	0	0	0	0	0	0	1
LeftHandThumb1	0	0	0	0	0	0	1
LeftHandThumb2	0	0	0	0	0	0	1
LeftHandThumb3	0	0	0	0	0	0	1
LeftHandThumb4	0	0	0	0	0	0	1
LeftHandIndex1	0	0	0	0	0	0	1
LeftHandIndex2	0	0	0	0	0	0	1
LeftHandIndex3	0	0	0	0	0	0	1
LeftHandIndex4	0	0	0	0	0	0	1
LeftHandMiddle1	0	0	0	0	0	0	1
LeftHandMiddle2	0	0	0	0	0	0	1
LeftHandMiddle3	0	0	0	0	0	0	1
LeftHandMiddle4	0	0	0	0	0	0	1
LeftHandRing1	0	0	0	0	0	0	1
LeftHandRing2	0	0	0	0	0	0	1
LeftHandRing3	0	0	0	0	0	0	1
LeftHandRing4	0	0	0	0	0	0	1
LeftHandPinky1	0	0	0	0	0	0	1
LeftHandPinky2	0	0	0	0	0	0	1
LeftHandPinky3	0	0	0	0	0	0	1
LeftHandPinky4	0	0	0	0	0	0	1
RightShoulder	0	0	0	0	0	0	1
RightArm	0	0	0	0	0	0	1
RightForeArm	0	0	0	0	0	0	1
RightHand	0	0	0	0	0	0	1
RightHandPinky1	0	0	0	0	0	0	1
RightHandPinky2	0	0	0	0	0	0	1
RightHandPinky3	0	0	0	0	0	0	1
RightHandPinky4	0	0	0	0	0	0	1
RightHandRing1	0	0	0	0	0	0	1
RightHandRing2	0	0	0	0	0	0	1
RightHandRing3	0	0	0	0	0	0	1
RightHandRing4	0	0	0	0	0	0	1
RightHandMiddle1	0	0	0	0	0	0	1
RightHandMiddle2	0	0	0	0	0	0	1
RightHandMiddle3	0	0	0	0	0	0	1
RightHandMiddle4	0	0	0	0	0	0	1
RightHandIndex1	0	0	0	0	0	0	1
RightHandIndex2	0	0	0	0	0	0	1
RightHandIndex3	0	0	0	0	0	0	1
RightHandIndex4	0	0	0	0	0	0	1
RightHandThumb1	0	0	0	0	0	0	1
RightHandThumb2	0	0	0	0	0	0	1
RightHandThumb3	0	0	0	0	0	0	1
RightHandThumb4	0	0	0	0	0	0	1
LeftUpLeg	0	0	0	0	0	0	1
LeftLeg	0	0	0	0	0	0	1
LeftFoot	0	0	0	0	0	0	1
LeftToeBase	0	0	0	0	0	0	1
RightUpLeg	0	0	0	0	0	0	1
RightLeg	0	0	0	0	0	0	1
RightFoot	0	0	0	0	0	0	1
RightToeBase	0	0	0	0	0	0	1
[Hips]
279	-99.08878326	1007.690491	14.50966644	4.03615284	-0.5020964742	-2.792236805	1.0
280	-80.90731812	1008.005066	19.26173401	3.627772093	-0.9312413335	-4.854528904	1.0
281	-64.11305237	1006.592773	22.70497894	2.709529638	-2.557759047	-6.322696209	1.0
282	-47.7128067	1008.341797	23.66756058	1.346375108	-5.018993378	-7.341127396	1.0
[Spine]
279	0	101.8159943	1.315000057	3.355831146	-0.4122163057	7.645205021	1.0
280	0	101.8159943	1.315000057	2.536059618	-0.3329780996	9.051591873	1.0
281	0	101.8159943	1.315000057	2.369658947	-0.1192806289	9.335606575	1.0
282	0	101.8159943	1.315000057	2.9441607	-0.2249386013	9.035831451	1.0
[Spine1]
279	0	100.8349991	-10.00800037	2.532380819	0.03557329252	2.15989399	1.0
280	0	100.8349991	-10.00800037	2.407247782	-0.001068853191	2.065336466	1.0
281	0	100.8349991	-10.00800037	2.468017101	-0.01512991451	1.802478552	1.0
282	0	100.8349991	-10.00800037	2.573402405	-0.05712999403	1.521907806	1.0
[Spine2]
279	0	91	-13.73399925	2.511179686	0.09130826592	2.16104269	1.0
280	0	91	-13.73399925	2.387018442	0.03695455939	2.067432404	1.0
281	0	91	-13.73399925	2.448551893	0.00789215602	1.807085037	1.0
282	0	91	-13.73399925	2.554540157	-0.04492616653	1.527699113	1.0
[Neck]
279	0	166.7169952	-25.16200066	-5.986821651	1.956084967	-0.02943808399	1.0
280	0	166.7169952	-25.16200066	-6.13585186	0.4383763969	0.5740395784	1.0
281	0	166.7169952	-25.16200066	-5.69283247	-0.07960253954	2.864107609	1.0
282	0	166.7169952	-25.16200066	-4.625664711	0.01632830873	5.140949726	1.0
[Head]
279	0	96.17900085	16.84999847	-7.79624176	2.787228107	-4.882265091	1.0
280	0	96.17900085	16.84999847	-5.321903229	1.548246145	-5.225512981	1.0
281	0	96.17900085	16.84999847	-4.235187531	2.317039251	-5.87033844	1.0
282	0	96.17900085	16.84999847	-4.357653618	4.278189659	-6.178158283	1.0
[LeftEye]
279	30.6760006	64.09500122	92.83599854	0	0	0	1.0
280	30.6760006	64.09500122	92.83599854	0	0	0	1.0
281	30.6760006	64.09500122	92.83599854	0	0	0	1.0
282	30.6760006	64.09500122	92.83599854	0	0	0	1.0
[RightEye]
279	-30.6760006	64.09500122	92.83499908	0	0	0	1.0
280	-30.6760006	64.09500122	92.83499908	0	0	0	1.0
281	-30.6760006	64.09500122	92.83499908	0	0	0	1.0
282	-30.6760006	64.09500122	92.83499908	0	0	0	1.0
[LeftShoulder]
279	45.70400238	109.4599991	-26.28000069	3.831778049	-8.906898499	-2.453188181	1.0
280	45.70400238	109.4599991	-26.28000069	3.77272296	-9.650426865	-1.817698002	1.0
281	45.70400238	109.4599991	-26.28000069	3.722156286	-10.67105007	-1.470571876	1.0
282	45.70400238	109.4599991	-26.28000069	3.774558544	-11.81894684	-2.556818962	1.0
[LeftArm]
279	105.923996	-5.24600029	-22.32099915	29.37145996	31.25997734	-63.74703217	1.0
280	105.923996	-5.24600029	-22.32099915	25.31802177	31.63019943	-68.36555481	1.0
281	105.923996	-5.24600029	-22.32099915	21.82536125	29.65337944	-70.7472229	1.0
282	105.923996	-5.24600029	-22.32099915	25.56409073	27.30886078	-68.95074463	1.0
[LeftForeArm]
279	278.414978	-0.0009999999311	0	-8.161245205e-06	-73.7144165	-0.0001934218599	1.0
280	278.414978	-0.0009999999311	0	1.865846571e-06	-62.32077026	-0.0002012249606	1.0
281	278.414978	-0.0009999999311	0	4.382780389e-06	-50.34572983	-0.0002136046533	1.0
282	278.414978	-0.0009999999311	0	-4.775975867e-06	-39.5005188	-0.0002121359576	1.0
[LeftHand]
279	283.2879944	0	0	17.59131241	-44.85042953	-17.76022339	1.0
280	283.2879944	0	0	-13.5704174	-28.74457169	3.019268751	1.0
281	283.2879944	0	0	-37.07382202	-3.849613428	13.44149208	1.0
282	283.2879944	0	0	-50.82567596	5.279292107	13.86160088	1.0
[LeftHandThumb1]
279	24.6609993	-15.75	26.8239994	-1.441046238	-8.316811562	8.652950287	1.0
280	24.6609993	-15.75	26.8239994	-1.444138408	-8.335094452	8.66057682	1.0
281	24.6609993	-15.75	26.8239994	-1.432629585	-8.266552925	8.632011414	1.0
282	24.6609993	-15.75	26.8239994	-1.359786034	-7.830459118	8.450742722	1.0
[LeftHandThumb2]
279	32.29800034	-18.64699936	18.64699936	-0.9858105779	48.03329086	-30.0838356	1.0
280	32.29800034	-18.64699936	18.64699936	-1.081245542	48.05448914	-30.21792984	1.0
281	32.29800034	-18.64699936	18.64699936	-0.7246124744	47.97410202	-29.71618462	1.0
282	32.29800034	-18.64699936	18.64699936	1.553747892	47.43197632	-26.51467896	1.0
[LeftHandThumb3]
279	26.52600098	-15.31499958	15.31499958	7.513127804	50.01416397	24.37907219	1.0
280	26.52600098	-15.31499958	15.31499958	7.580644131	50.08798981	24.44235039	1.0
281	26.52600098	-15.31499958	15.31499958	7.331972122	49.810009	24.20965004	1.0
282	26.52600098	-15.31499958	15.31499958	5.756866455	48.04772186	22.74303055	1.0
[LeftHandThumb4]
279	19.54599953	-11.28499985	11.28499985	0	0	0	1.0
280	19.54599953	-11.28499985	11.28499985	0	0	0	1.0
281	19.54599953	-11.28499985	11.28499985	0	0	0	1.0
282	19.54599953	-11.28499985	11.28499985	0	0	0	1.0
[LeftHandIndex1]
279	91.09299469	-5.170999527	22.60099792	-1.70618546	9.270839691	-79.10777283	1.0
280	91.09299469	-5.170999527	22.60099792	-1.711608768	9.280878067	-79.23814392	1.0
281	91.09299469	-5.170999527	22.60099792	-1.691290498	9.24307251	-78.74971008	1.0
282	91.09299469	-5.170999527	22.60099792	-1.558673143	9.000989914	-75.64321899	1.0
[LeftHandIndex2]
279	36.76399994	0	0	-5.082649708	5.777840137	-82.66384888	1.0
280	36.76399994	0	0	-5.094495296	5.779346466	-82.78156281	1.0
281	36.76399994	0	0	-5.050109386	5.773590565	-82.34050751	1.0
282	36.76399994	0	0	-4.765929222	5.735124588	-79.53543854	1.0
[LeftHandIndex3]
279	28.83100128	0	0	-6.44753027	5.791984558	-96.14316559	1.0
280	28.83100128	0	0	-6.46354866	5.790243626	-96.30201721	1.0
281	28.83100128	0	0	-6.4034729	5.796537399	-95.70685577	1.0
282	28.83100128	0	0	-6.015957832	5.833880424	-91.9209671	1.0
[LeftHandIndex4]
279	23.92700005	0	0	0	0	0	1.0
280	23.92700005	0	0	0	0	0	1.0
281	23.92700005	0	0	0	0	0	1.0
282	23.92700005	0	0	0	0	0	1.0
[LeftHandMiddle1]
279	95.33399963	0	0	-6.493189335	5.273352146	-74.28977966	1.0
280	95.33399963	0	0	-6.504788399	5.272644043	-74.39524078	1.0
281	95.33399963	0	0	-6.461368561	5.275177956	-74.00016022	1.0
282	95.33399963	0	0	-6.183452606	5.290127754	-71.48747253	1.0
[LeftHandMiddle2]
279	36.98199844	0	0	-7.581371784	5.555044651	-107.5748138	1.0
280	36.98199844	0	0	-7.597076893	5.550070763	-107.7371063	1.0
281	36.98199844	0	0	-7.53818655	5.568487167	-107.1291275	1.0
282	36.98199844	0	0	-7.157365799	5.683980942	-103.2616348	1.0
[LeftHandMiddle3]
279	29.50900078	0	0	-4.042826176	5.546720982	-72.15420532	1.0
280	29.50900078	0	0	-4.052183628	5.549711704	-72.25108337	1.0
281	29.50900078	0	0	-4.017121792	5.538418293	-71.88806152	1.0
282	29.50900078	0	0	-3.79329586	5.465298653	-69.57957458	1.0
[LeftHandMiddle4]
279	28.3390007	0	0	0	0	0	1.0
280	28.3390007	0	0	0	0	0	1.0
281	28.3390007	0	0	0	0	0	1.0
282	28.3390007	0	0	0	0	0	1.0
[LeftHandRing1]
279	91.04499817	-0.4390000105	-18.65100098	-7.092056274	2.508943319	-79.75260925	1.0
280	91.04499817	-0.4390000105	-18.65100098	-7.103441238	2.501551867	-79.85736847	1.0
281	91.04499817	-0.4390000105	-18.65100098	-7.06080389	2.529128551	-79.46485138	1.0
282	91.04499817	-0.4390000105	-18.65100098	-6.78787899	2.7035532	-76.96831512	1.0
[LeftHandRing2]
279	31.54000092	0	0	-6.247357368	5.809946537	-94.1629715	1.0
280	31.54000092	0	0	-6.260728836	5.80897665	-94.29493713	1.0
281	31.54000092	0	0	-6.21065712	5.81248951	-93.8004837	1.0
282	31.54000092	0	0	-5.889196873	5.83310318	-90.6554718	1.0
[LeftHandRing3]
279	29.37700081	0	0	-2.897734404	5.038351059	-59.78793716	1.0
280	29.37700081	0	0	-2.904357672	5.042200089	-59.86348343	1.0
281	29.37700081	0	0	-2.879526854	5.027755737	-59.58047104	1.0
282	29.37700081	0	0	-2.721400261	4.935128689	-57.78089905	1.0
[LeftHandRing4]
279	26.47500038	0	0	0	0	0	1.0
280	26.47500038	0	0	0	0	0	1.0
281	26.47500038	0	0	0	0	0	1.0
282	26.47500038	0	0	0	0	0	1.0
[LeftHandPinky1]
279	80.77799988	-4.887000084	-38.06099701	-15.73940182	5.237111568	-84.94916534	1.0
280	80.77799988	-4.887000084	-38.06099701	-15.76481152	5.231294632	-85.05268097	1.0
281	80.77799988	-4.887000084	-38.06099701	-15.66962337	5.252964973	-84.66479492	1.0
282	80.77799988	-4.887000084	-38.06099701	-15.06243706	5.39005661	-82.19784546	1.0
[LeftHandPinky2]
279	36	0	0	-2.464766979	4.760926247	-54.72216034	1.0
280	36	0	0	-2.470362186	4.764865875	-54.78938293	1.0
281	36	0	0	-2.449471235	4.750115395	-54.53757477	1.0
282	36	0	0	-2.316596508	4.655686378	-52.93624878	1.0
[LeftHandPinky3]
279	21.14200211	0	0	-4.928086758	5.755950928	-81.12567902	1.0
280	21.14200211	0	0	-4.939774513	5.757755756	-81.24221802	1.0
281	21.14200211	0	0	-4.895998955	5.75087595	-80.80561829	1.0
282	21.14200211	0	0	-4.615857124	5.705327988	-78.02901459	1.0
[LeftHandPinky4]
279	19.75699997	0	0	0	0	0	1.0
280	19.75699997	0	0	0	0	0	1.0
281	19.75699997	0	0	0	0	0	1.0
282	19.75699997	0	0	0	0	0	1.0
[RightShoulder]
279	-45.70000076	109.4620056	-26.28000069	3.131128073	5.714643955	5.711530209	1.0
280	-45.70000076	109.4620056	-26.28000069	3.575712204	6.196718216	9.668733597	1.0
281	-45.70000076	109.4620056	-26.28000069	4.143655777	7.43227911	13.55044746	1.0
282	-45.70000076	109.4620056	-26.28000069	4.710764408	9.587080002	16.00437737	1.0
[RightArm]
279	-105.9280014	-5.248000145	-22.32099915	52.36133194	-11.26959133	44.68667221	1.0
280	-105.9280014	-5.248000145	-22.32099915	43.46984863	-4.562996387	44.45717621	1.0
281	-105.9280014	-5.248000145	-22.32099915	34.30256271	3.010473967	44.61634445	1.0
282	-105.9280014	-5.248000145	-22.32099915	29.22643661	6.767916679	45.51091766	1.0
[RightForeArm]
279	-278.414978	0	0	1.474393343e-06	59.18751907	4.406169865e-06	1.0
280	-278.414978	0	0	6.611212939e-06	39.28358841	-7.944619938e-06	1.0
281	-278.414978	0	0	4.400036687e-06	21.73298454	6.23027745e-06	1.0
282	-278.414978	0	0	7.476662063e-07	15.49944401	2.680988928e-06	1.0
[RightHand]
279	-283.2879944	0	0.0009999999311	6.094294071	13.60879612	15.46982288	1.0
280	-283.2879944	0	0.0009999999311	1.174253583	7.783858776	17.24602509	1.0
281	-283.2879944	0	0.0009999999311	-4.002834797	6.980116844	11.73810101	1.0
282	-283.2879944	0	0.0009999999311	-14.96986485	7.709044456	2.450349569	1.0
[RightHandPinky1]
279	-80.76699829	-4.885000229	-38.06000137	-14.50521278	-4.051106453	84.17110443	1.0
280	-80.76699829	-4.885000229	-38.06000137	-14.52076817	-4.047480583	84.22720337	1.0
281	-80.76699829	-4.885000229	-38.06000137	-14.55135155	-4.04032135	84.33856964	1.0
282	-80.76699829	-4.885000229	-38.06000137	-14.19574928	-4.130269051	83.05126953	1.0
[RightHandPinky2]
279	-36	0	0.0009999999311	-1.960300088	-3.784448147	54.77449799	1.0
280	-36	0	0.0009999999311	-1.960946083	-3.784902334	54.78436279	1.0
281	-36	0	0.0009999999311	-1.962400436	-3.78593111	54.80643463	1.0
282	-36	0	0.0009999999311	-1.946704984	-3.775254011	54.57149887	1.0
[RightHandPinky3]
279	-21.14200211	0	0	-3.916723013	-4.575291634	81.12310791	1.0
280	-21.14200211	0	0	-3.920293093	-4.57585907	81.16782379	1.0
281	-21.14200211	0	0	-3.927527428	-4.576950073	81.25836945	1.0
282	-21.14200211	0	0	-3.843892336	-4.568172455	80.22515869	1.0
[RightHandPinky4]
279	-19.75699997	0	0	0	0	0	1.0
280	-19.75699997	0	0	0	0	0	1.0
281	-19.75699997	0	0	0	0	0	1.0
282	-19.75699997	0	0	0	0	0	1.0
[RightHandRing1]
279	-91.03599548	-0.4390000105	-18.65100098	-5.971980572	-1.324525118	78.97857666	1.0
280	-91.03599548	-0.4390000105	-18.65100098	-5.9770298	-1.319278002	79.0357666	1.0
281	-91.03599548	-0.4390000105	-18.65100098	-5.986997128	-1.308944464	79.14924622	1.0
282	-91.03599548	-0.4390000105	-18.65100098	-5.872198105	-1.436188936	77.83744049	1.0
[RightHandRing2]
279	-31.54000092	0	0	-4.963395596	-4.618562222	94.12689972	1.0
280	-31.54000092	0	0	-4.968146801	-4.618227005	94.18601227	1.0
281	-31.54000092	0	0	-4.977690697	-4.617518425	94.30453491	1.0
282	-31.54000092	0	0	-4.867322922	-4.632422447	92.94338989	1.0
[RightHandRing3]
279	-29.37700081	0	0	-2.305590153	-4.005662441	59.83459091	1.0
280	-29.37700081	0	0	-2.30652976	-4.006193638	59.8481369	1.0
281	-29.37700081	0	0	-2.308600903	-4.007388592	59.87768173	1.0
282	-29.37700081	0	0	-2.285919905	-3.994860888	59.55712128	1.0
[RightHandRing4]
279	-26.47500038	0	0	0	0	0	1.0
280	-26.47500038	0	0	0	0	0	1.0
281	-26.47500038	0	0	0	0	0	1.0
282	-26.47500038	0	0	0	0	0	1.0
[RightHandMiddle1]
279	-95.32500458	0	0	-5.486209869	-4.098899841	73.52853394	1.0
280	-95.32500458	0	0	-5.491375923	-4.098377228	73.5860672	1.0
281	-95.32500458	0	0	-5.501577854	-4.09732008	73.70029449	1.0
282	-95.32500458	0	0	-5.383267879	-4.11649847	72.37911987	1.0
[RightHandMiddle2]
279	-36.98199844	0	0	-6.021683216	-4.41703558	107.5015564	1.0
280	-36.98199844	0	0	-6.028010845	-4.415041924	107.5838165	1.0
281	-36.98199844	0	0	-6.04061842	-4.41103363	107.7477036	1.0
282	-36.98199844	0	0	-5.895721436	-4.470110893	105.8568878	1.0
[RightHandMiddle3]
279	-29.50900078	0	0	-3.214511395	-4.411184311	72.1757431	1.0
280	-29.50900078	0	0	-3.216809034	-4.411905289	72.20553589	1.0
281	-29.50900078	0	0	-3.221525431	-4.413394928	72.26678467	1.0
282	-29.50900078	0	0	-3.167585373	-4.39822197	71.57546234	1.0
[RightHandMiddle4]
279	-28.3390007	0	0.0009999999311	0	0	0	1.0
280	-28.3390007	0	0.0009999999311	0	0	0	1.0
281	-28.3390007	0	0.0009999999311	0	0	0	1.0
282	-28.3390007	0	0.0009999999311	0	0	0	1.0
[RightHandIndex1]
279	-91.08300018	-5.167999744	22.60099792	-0.6021386385	-8.079756737	78.33377838	1.0
280	-91.08300018	-5.167999744	22.60099792	-0.6037513018	-8.087464333	78.40999603	1.0
281	-91.08300018	-5.167999744	22.60099792	-0.6069254875	-8.10248661	78.56079865	1.0
282	-91.08300018	-5.167999744	22.60099792	-0.5697515011	-7.938757896	76.80967712	1.0
[RightHandIndex2]
279	-36.76399994	0	0	-4.03923893	-4.592704773	82.65594482	1.0
280	-36.76399994	0	0	-4.043102741	-4.593189716	82.70415497	1.0
281	-36.76399994	0	0	-4.050888062	-4.594167233	82.8013916	1.0
282	-36.76399994	0	0	-3.96049118	-4.587371349	81.68878174	1.0
[RightHandIndex3]
279	-28.83100128	0	0	-5.121518612	-4.604461193	96.09326935	1.0
280	-28.83100128	0	0	-5.127689838	-4.60381937	96.17027283	1.0
281	-28.83100128	0	0	-5.140023232	-4.602459431	96.3239975	1.0
282	-28.83100128	0	0	-4.996326447	-4.629263401	94.55284882	1.0
[RightHandIndex4]
279	-23.92700005	0	0	0	0	0	1.0
280	-23.92700005	0	0	0	0	0	1.0
281	-23.92700005	0	0	0	0	0	1.0
282	-23.92700005	0	0	0	0	0	1.0
[RightHandThumb1]
279	-24.64799881	-15.72700024	26.82600021	-2.386321545	10.15581226	-8.281352997	1.0
280	-24.64799881	-15.72700024	26.82600021	-2.388885021	10.17277145	-8.288895607	1.0
281	-24.64799881	-15.72700024	26.82600021	-2.393728256	10.20497417	-8.303168297	1.0
282	-24.64799881	-15.72700024	26.82600021	-2.331278324	9.822701454	-8.130243301	1.0
[RightHandThumb2]
279	-32.29800034	-18.64699936	18.64699936	-1.991229892	-49.38915634	30.12862396	1.0
280	-32.29800034	-18.64699936	18.64699936	-2.081641912	-49.4033432	30.25403404	1.0
281	-32.29800034	-18.64699936	18.64699936	-2.253450394	-49.42981339	30.49217224	1.0
282	-32.29800034	-18.64699936	18.64699936	0.003102660179	-49.21583939	27.4953289	1.0
[RightHandThumb3]
279	-26.52600098	-15.31399918	15.31399918	13.43306351	-55.09302139	-27.67048073	1.0
280	-26.52600098	-15.31399918	15.31399918	13.51902676	-55.16749954	-27.74353409	1.0
281	-26.52600098	-15.31399918	15.31399918	13.68486977	-55.30792999	-27.88469887	1.0
282	-26.52600098	-15.31399918	15.31399918	11.64663506	-53.63298798	-26.11574554	1.0
[RightHandThumb4]
279	-19.54599953	-11.28499985	11.28499985	0	0	0	1.0
280	-19.54599953	-11.28499985	11.28499985	0	0	0	1.0
281	-19.54599953	-11.28499985	11.28499985	0	0	0	1.0
282	-19.54599953	-11.28499985	11.28499985	0	0	0	1.0
[LeftUpLeg]
279	82.07800293	-67.51699829	-15.99599934	-32.37172699	19.46759415	23.88398361	1.0
280	82.07800293	-67.51699829	-15.99599934	-29.54427719	19.69903946	19.41659355	1.0
281	82.07800293	-67.51699829	-15.99599934	-25.04066467	18.66317558	16.17245865	1.0
282	82.07800293	-67.51699829	-15.99599934	-20.9983902	17.1717186	15.26387215	1.0
[LeftLeg]
279	0	-443.7049866	2.845999956	44.36479187	-5.86617136	-5.677280903	1.0
280	0	-443.7049866	2.845999956	38.67066193	-5.881546497	-4.022108078	1.0
281	0	-443.7049866	2.845999956	32.5671463	-1.517342567	0.8760985136	1.0
282	0	-443.7049866	2.845999956	29.47564697	2.917994022	4.812999725	1.0
[LeftFoot]
279	0	-444.2789917	-29.8219986	6.229241848	-15.42885876	-28.86236382	1.0
280	0	-444.2789917	-29.8219986	-0.3633406162	-12.92118073	-24.62808037	1.0
281	0	-444.2789917	-29.8219986	-4.582934856	-8.145670891	-15.56592751	1.0
282	0	-444.2789917	-29.8219986	-5.166998386	-5.605296135	-11.69148159	1.0
[LeftToeBase]
279	0	-87.28699493	107.1060028	-1.923511267	3.262337032e-06	6.014342944e-06	1.0
280	0	-87.28699493	107.1060028	-1.360610723	-4.041530701e-06	5.172207239e-06	1.0
281	0	-87.28699493	107.1060028	-3.000338793	2.325574968e-07	-2.865286433e-06	1.0
282	0	-87.28699493	107.1060028	-4.452262878	4.352435099e-06	-2.542558832e-06	1.0
[RightUpLeg]
279	-82.07800293	-67.51699829	-15.99599934	-5.665281773	-0.3341482878	-8.910661697	1.0
280	-82.07800293	-67.51699829	-15.99599934	-2.831978321	-2.053731918	-8.047634125	1.0
281	-82.07800293	-67.51699829	-15.99599934	-3.099272966	-2.711577177	-7.819629669	1.0
282	-82.07800293	-67.51699829	-15.99599934	-2.807864189	-1.957300305	-7.796386719	1.0
[RightLeg]
279	0	-443.7049866	2.861999989	11.44320393	9.734717369	1.707497716	1.0
280	0	-443.7049866	2.861999989	6.633590698	10.13922691	1.289238453	1.0
281	0	-443.7049866	2.861999989	8.688380241	9.879554749	2.070171356	1.0
282	0	-443.7049866	2.861999989	10.00400925	9.511116028	2.942388535	1.0
[RightFoot]
279	0	-444.2770081	-29.83799934	-11.40600586	3.926366568	10.68289471	1.0
280	0	-444.2770081	-29.83799934	-7.08214283	5.787014484	10.33401775	1.0
281	0	-444.2770081	-29.83799934	-6.410385609	7.837759495	8.275748253	1.0
282	0	-444.2770081	-29.83799934	-5.579953194	10.09069252	5.536110401	1.0
[RightToeBase]
279	0	-87.28699493	107.1060028	0.9696199298	0.02474812977	-0.9380864501	1.0
280	0	-87.28699493	107.1060028	-1.647439361	0.004827050027	0.3707281649	1.0
281	0	-87.28699493	107.1060028	-4.960548878	2.020316742e-06	4.83256963e-06	1.0
282	0	-87.28699493	107.1060028	-6.672449589	-0.0003993435821	-0.03089141659	1.0
[EndOfFile]
